<?xml version="1.0" encoding="utf-8"?>
<!-- Generator: Adobe Illustrator 16.0.0, SVG Export Plug-In . SVG Version: 6.00 Build 0)  -->
<!DOCTYPE svg PUBLIC "-//W3C//DTD SVG 1.1//EN" "http://www.w3.org/Graphics/SVG/1.1/DTD/svg11.dtd">
<svg version="1.1" id="Layer_1" xmlns="http://www.w3.org/2000/svg" xmlns:xlink="http://www.w3.org/1999/xlink" x="0px" y="0px"
	 width="300px" height="150px" viewBox="0 0 300 150" enable-background="new 0 0 300 150" xml:space="preserve">
<g>
	<g>
		<g>
			<path fill="#E6D1B7" d="M228.849,24.931c-9.682,0-17.752,6.833-19.686,15.939c0.29,0.064,0.571,0.119,0.866,0.183l2.836,0.245
				l1.893,0.742c12.198,2.657,23.317,5.957,33.032,9.761c0.749-2.108,1.183-4.378,1.183-6.744
				C248.973,33.946,239.95,24.931,228.849,24.931z"/>
			<path fill="#E6D1B7" d="M228.849,20.143c13.753,0,24.905,11.157,24.905,24.914c0,3.003-0.563,5.881-1.543,8.543
				c3.387,1.456,6.585,2.979,9.569,4.555c1.625-4.055,2.51-8.47,2.51-13.098c0-19.582-15.862-35.454-35.441-35.454
				c-17.272,0-31.617,12.355-34.777,28.696c3.54,0.515,7.018,1.077,10.419,1.697C206.833,28.67,216.823,20.143,228.849,20.143z"/>
		</g>
		<g>
			<path fill="#8B2332" d="M271.863,64.233c-25.254-17.688-74.712-29.718-131.614-29.718c-34.099,0-65.518,4.329-90.666,11.594
				c21.784-2.524,45.583-3.919,70.536-3.919C182.475,42.189,237.699,50.874,271.863,64.233z"/>
		</g>
	</g>
	<g>
		<g>
			<path fill="#8B2332" d="M14.449,115.438l-1.357,8.771c-0.095,0.569-0.129,1.014-0.129,1.313c0,1.457,0.899,2.182,2.69,2.182
				c1.229,0,2.09-0.263,2.57-0.788c0.483-0.524,0.838-1.43,1.059-2.695l1.505-9.277c0.05-0.254,0.07-0.613,0.07-1.047
				c0-1.232-0.501-2.039-1.519-2.439c-0.612-0.26-1.664-0.396-3.096-0.396h-3.313l1.108-7.243h3.314c1.805,0,3.1-0.226,3.885-0.662
				c1.02-0.563,1.656-1.67,1.919-3.29c0.576-3.472,0.858-5.423,0.858-5.862c0-1.454-0.907-2.177-2.705-2.177
				c-1.234,0-2.083,0.262-2.571,0.79c-0.495,0.534-0.844,1.432-1.063,2.707l-0.656,4.22H5.121c0.97-6.409,2.608-10.658,4.897-12.752
				c2.302-2.099,6.62-3.146,12.97-3.146c3.849,0,6.763,0.426,8.748,1.266c2.899,1.275,4.366,3.585,4.366,6.938
				c0,1.019-0.264,3.106-0.8,6.282c-0.432,2.6-1.108,4.537-2.001,5.809c-1.049,1.511-2.738,2.678-5.032,3.512
				c2.934,1.014,4.388,3.063,4.388,6.153c0,0.748-0.368,3.461-1.119,8.13c-0.887,5.423-2.544,9.133-4.964,11.138
				c-2.425,2-6.42,3.007-11.982,3.007c-4.382,0-7.526-0.51-9.472-1.521c-2.644-1.456-3.967-4.143-3.967-8.078
				c0-1.401,0.461-5.03,1.395-10.842H14.449z"/>
			<path fill="#8B2332" d="M53.253,135.23l0.732-12.545h-6.888l-3.57,12.545h-9.976l16.332-50.935h15.473l-0.4,50.935H53.253z
				 M55.775,91.779l-6.552,23.192h5.234l1.449-23.192H55.775z"/>
			<path fill="#8B2332" d="M81.858,135.23H70.013l7.977-50.935h15.99c3.984,0,6.87,0.534,8.693,1.589
				c2.383,1.368,3.585,3.881,3.585,7.537c0,1.282-0.415,4.571-1.251,9.858c-1.277,8.03-4.515,12.789-9.666,14.291
				c-1.68,0.487-5.276,0.722-10.789,0.722L81.858,135.23z M88.772,91.655l-3.139,19.228l2.006,0.005
				c1.775,0,3.045-0.571,3.795-1.725c0.632-0.97,1.251-3.226,1.87-6.771c0.582-3.188,0.874-5.567,0.874-7.163
				c0-1.334-0.262-2.256-0.794-2.784c-0.529-0.527-1.449-0.808-2.774-0.808L88.772,91.655z"/>
			<path fill="#8B2332" d="M132.21,135.23h-18.821l-1.345,8.456H103.2l2.575-16.188c1.725,0,3.002-0.907,3.831-2.72
				c0.707-1.538,1.396-4.363,2.053-8.47l5.099-32.013h28.898l-6.814,43.22h3.445l-2.587,16.171h-8.833L132.21,135.23z
				 M119.27,127.516h7.72l5.596-35.506h-5.866l-3.942,24.899C121.972,122.035,120.808,125.567,119.27,127.516z"/>
			<path fill="#8B2332" d="M159.846,135.879c-4.32,0-7.428-0.5-9.322-1.521c-2.611-1.404-3.913-4.046-3.913-7.928
				c0-1.278,0.151-2.894,0.476-4.835l3.694-23.663c0.887-5.513,2.626-9.301,5.228-11.376c2.425-1.936,6.488-2.91,12.174-2.91
				c4.357,0,7.472,0.511,9.321,1.523c2.645,1.367,3.967,4.01,3.967,7.933c0,1.273-0.147,2.888-0.467,4.83l-3.705,23.663
				c-0.878,5.521-2.582,9.28-5.119,11.277C169.641,134.872,165.541,135.879,159.846,135.879z M169.564,94.035
				c0-1.47-0.885-2.208-2.699-2.208c-2.055,0-3.274,1.155-3.625,3.459l-4.633,28.966c-0.061,0.263-0.086,0.681-0.086,1.238
				c0,1.476,0.882,2.214,2.631,2.214c2.112,0,3.349-1.147,3.695-3.461l4.623-28.968C169.54,95.014,169.564,94.604,169.564,94.035z"
				/>
		</g>
		<polygon fill="#8B2332" points="299.717,96.488 219.059,96.488 220.981,84.296 209.115,84.296 207.252,96.488 201.002,96.488 
			202.876,84.296 190.926,84.296 182.949,135.23 194.898,135.23 197.219,120.234 203.471,120.234 201.146,135.23 212.992,135.23 
			215.354,120.234 295.577,120.234 		"/>
		<g>
			<path fill="#FFFFFF" d="M206.959,114.783h-3.353l2.278-12.387h6.837l-0.358,1.908h-3.474L206.959,114.783z"/>
			<path fill="#FFFFFF" d="M224.213,114.783h-3.343l2.278-12.387h4.52c1.118,0,1.938,0.127,2.457,0.389
				c0.674,0.33,1.014,0.935,1.014,1.835c0,0.306-0.12,1.105-0.359,2.392c-0.369,1.954-1.273,3.113-2.75,3.478
				c-0.474,0.116-1.485,0.177-3.056,0.177L224.213,114.783z M226.173,104.187l-0.866,4.677h0.562c0.493,0,0.851-0.137,1.062-0.418
				c0.17-0.233,0.345-0.787,0.52-1.645c0.17-0.775,0.238-1.351,0.238-1.74c0-0.326-0.063-0.549-0.22-0.682
				c-0.143-0.131-0.405-0.192-0.784-0.192H226.173z"/>
			<path fill="#FFFFFF" d="M241.369,102.396h3.583l-0.157,7.446l2.4-7.446h3.09l-3.896,10.089c-0.267,0.696-0.742,1.248-1.395,1.666
				c-0.655,0.419-1.411,0.632-2.254,0.632h-1.969l0.356-1.882h0.88c0.275,0,0.395-0.105,0.386-0.325v-0.052L241.369,102.396z"/>
			<path fill="#FFFFFF" d="M260.592,102.396h8.389l-2.289,12.387h-3.386l1.956-10.51h-1.638l-1.946,10.51H258.3L260.592,102.396z"/>
			<path fill="#FFFFFF" d="M280.069,102.396h8.396l-2.293,12.387h-3.37l1.93-10.51h-1.631l-1.936,10.51h-3.384L280.069,102.396z"/>
		</g>
		<g>
			<g>
				<path d="M12.535,76.676h-1.63l1.33-8.361h-0.769l-1.333,8.361H8.51l1.543-9.711h4.02L12.535,76.676z"/>
				<path d="M16.679,75.914l-0.491,2.949h-1.652l1.881-11.897h1.576l-0.089,0.658h0.05c0.371-0.465,0.831-0.705,1.388-0.705
					c0.657,0,0.99,0.307,0.99,0.92c0,0.139-0.027,0.318-0.057,0.516l-1.044,6.616c-0.095,0.55-0.22,0.952-0.395,1.204
					c-0.244,0.333-0.614,0.502-1.094,0.502C17.224,76.676,16.867,76.419,16.679,75.914z M18.568,68.505
					c0-0.185-0.119-0.285-0.356-0.285c-0.263,0-0.432,0.214-0.501,0.66l-0.886,5.813c-0.038,0.138-0.051,0.231-0.051,0.284
					c0,0.271,0.107,0.401,0.337,0.401c0.259,0,0.432-0.188,0.487-0.578l0.934-5.92C18.55,68.666,18.568,68.55,18.568,68.505z"/>
				<path d="M22.775,76.745c-0.557,0-0.975-0.069-1.251-0.2c-0.362-0.173-0.549-0.525-0.549-1.032c0-0.099,0.019-0.256,0.052-0.458
					l1.012-6.466c0.1-0.639,0.343-1.081,0.736-1.337c0.35-0.221,0.869-0.334,1.548-0.334c1.201,0,1.814,0.409,1.814,1.233
					c0,0.094-0.019,0.238-0.042,0.438l-1.021,6.461c-0.107,0.648-0.356,1.102-0.752,1.367
					C23.974,76.634,23.457,76.745,22.775,76.745z M24.131,68.125c-0.257,0-0.4,0.152-0.444,0.432l-1.042,6.53
					c-0.015,0.064-0.019,0.126-0.019,0.188c0,0.176,0.117,0.263,0.342,0.263c0.276,0,0.432-0.158,0.489-0.489l1.004-6.461
					l0.027-0.199C24.488,68.213,24.37,68.125,24.131,68.125z"/>
				<path d="M30.989,76.676h-1.5l0.806-5.124h-0.038l-1.888,5.124h-1.5l1.543-9.711h1.515l-0.818,5.131l0.019-0.008l1.894-5.123
					h1.504L30.989,76.676z"/>
				<path d="M33.642,72.957h1.593l-0.333,2.094l-0.024,0.21c0,0.191,0.124,0.279,0.363,0.279c0.281,0,0.435-0.155,0.487-0.475
					l0.38-2.478l0.025-0.198c0-0.228-0.111-0.342-0.336-0.342H35.07l0.193-1.251h0.712c0.29,0,0.458-0.176,0.506-0.533l0.257-1.662
					l0.026-0.207c0-0.174-0.119-0.269-0.364-0.269c-0.275,0-0.437,0.158-0.486,0.48l-0.188,1.289h-1.599
					c0.19-1.199,0.354-1.937,0.51-2.2c0.318-0.519,0.971-0.776,1.951-0.776c0.556,0,0.981,0.07,1.256,0.207
					c0.361,0.178,0.543,0.519,0.543,1.019c0,0.148-0.076,0.688-0.22,1.611c-0.13,0.858-0.525,1.417-1.169,1.652
					c0.283,0.096,0.471,0.241,0.57,0.411c0.082,0.142,0.125,0.358,0.125,0.658c0,0.243-0.052,0.661-0.144,1.265
					c-0.207,1.235-0.37,1.985-0.514,2.229c-0.313,0.525-0.969,0.775-1.982,0.775c-1.206,0-1.794-0.415-1.794-1.244
					c0-0.097,0.01-0.245,0.037-0.447L33.642,72.957z"/>
				<path d="M39.171,76.676l1.544-9.711h2.414c0.431,0,0.749,0.056,0.925,0.16c0.256,0.136,0.386,0.401,0.386,0.801
					c0,0.206-0.031,0.447-0.069,0.706l-0.25,1.543c-0.062,0.364-0.156,0.621-0.296,0.794c-0.128,0.167-0.373,0.304-0.696,0.424
					c0.481,0.188,0.724,0.52,0.724,0.978c0,0.179-0.008,0.336-0.031,0.479l-0.35,2.157c-0.11,0.653-0.305,1.088-0.587,1.324
					c-0.281,0.233-0.743,0.346-1.418,0.346H39.171z M41.552,72.059l-0.556,3.319h0.377c0.279,0,0.44-0.168,0.498-0.513l0.373-2.315
					c0.016-0.068,0.016-0.13,0.016-0.189c0-0.211-0.119-0.313-0.351-0.313L41.552,72.059z M42.141,68.258l-0.443,2.538h0.387
					c0.294,0,0.455-0.179,0.519-0.543l0.238-1.47c0.014-0.069,0.019-0.139,0.019-0.207c0-0.204-0.12-0.318-0.35-0.318H42.141z"/>
				<path d="M47.219,76.745c-0.566,0-0.959-0.069-1.248-0.2c-0.363-0.173-0.55-0.525-0.55-1.032c0-0.099,0.013-0.256,0.05-0.458
					l1.014-6.466c0.098-0.639,0.355-1.081,0.734-1.337c0.347-0.221,0.86-0.334,1.548-0.334c1.21,0,1.806,0.409,1.806,1.233
					c0,0.094,0,0.238-0.037,0.438l-1,6.461c-0.113,0.648-0.363,1.102-0.769,1.367C48.423,76.634,47.909,76.745,47.219,76.745z
					 M48.581,68.125c-0.263,0-0.409,0.152-0.446,0.432l-1.055,6.53c0,0.064,0,0.126,0,0.188c0,0.176,0.112,0.263,0.343,0.263
					c0.269,0,0.431-0.158,0.482-0.489l1.012-6.461l0.019-0.199C48.935,68.213,48.809,68.125,48.581,68.125z"/>
				<path d="M50.765,78.306l0.47-2.934c0.365,0,0.638-0.53,0.815-1.578l1.073-6.829h3.962l-1.327,8.413h0.434l-0.476,2.928h-1.42
					l0.262-1.63h-2.125l-0.254,1.63H50.765z M53.124,75.377h1.062l1.132-7.12h-0.896l-0.899,5.644
					c-0.049,0.361-0.094,0.612-0.142,0.763C53.331,74.938,53.234,75.17,53.124,75.377z"/>
				<path d="M60.542,72.957h1.627l-0.366,2.208c-0.098,0.661-0.349,1.108-0.742,1.331c-0.293,0.168-0.807,0.25-1.525,0.25
					c-0.589,0-1-0.042-1.231-0.139c-0.389-0.164-0.582-0.494-0.582-0.985c0-0.139,0.013-0.303,0.043-0.496l1.045-6.6
					c0.094-0.684,0.349-1.144,0.732-1.355c0.299-0.164,0.812-0.252,1.53-0.252c0.594,0,1.021,0.051,1.251,0.139
					c0.387,0.158,0.568,0.476,0.568,0.984c0,0.13-0.007,0.304-0.025,0.499l-0.286,1.836h-1.64l0.276-1.787l0.031-0.21
					c0-0.178-0.119-0.266-0.369-0.266c-0.268,0-0.425,0.164-0.482,0.476l-1,6.461c0,0.069-0.004,0.125-0.004,0.18
					c0,0.209,0.112,0.309,0.322,0.309c0.27,0,0.435-0.162,0.484-0.489L60.542,72.957z"/>
				<path d="M66.081,76.676h-1.619l1.327-8.362h-1.209l0.214-1.349h4.058l-0.22,1.349h-1.2L66.081,76.676z"/>
				<path d="M69.113,76.676l1.531-9.711h2.426c0.432,0,0.744,0.056,0.918,0.16c0.261,0.136,0.382,0.401,0.382,0.801
					c0,0.206-0.019,0.447-0.057,0.706l-0.255,1.543c-0.057,0.364-0.151,0.621-0.288,0.794c-0.139,0.167-0.376,0.304-0.7,0.424
					c0.48,0.188,0.72,0.52,0.72,0.978c0,0.179-0.006,0.336-0.032,0.479l-0.351,2.157c-0.1,0.653-0.294,1.088-0.58,1.324
					c-0.277,0.233-0.759,0.346-1.422,0.346H69.113z M71.482,72.059l-0.544,3.319h0.381c0.271,0,0.431-0.168,0.486-0.513l0.372-2.315
					c0.018-0.068,0.018-0.13,0.018-0.189c0-0.211-0.112-0.313-0.342-0.313L71.482,72.059z M72.068,68.258l-0.43,2.538h0.382
					c0.292,0,0.461-0.179,0.517-0.543l0.243-1.47c0.008-0.069,0.008-0.139,0.008-0.207c0-0.204-0.113-0.318-0.346-0.318H72.068z"/>
				<path d="M79.933,72.047h-2.406l-0.494,3.003c-0.026,0.145-0.026,0.207-0.026,0.207c0,0.191,0.108,0.282,0.351,0.282
					c0.263,0,0.436-0.158,0.481-0.489l0.35-2.094h1.632l-0.356,2.094c-0.093,0.648-0.357,1.102-0.756,1.367
					c-0.352,0.217-0.87,0.328-1.543,0.328c-0.562,0-0.976-0.069-1.251-0.2c-0.375-0.173-0.548-0.525-0.548-1.032
					c0-0.099,0.019-0.256,0.042-0.458l1.012-6.466c0.108-0.639,0.357-1.081,0.746-1.337c0.343-0.221,0.854-0.334,1.543-0.334
					c1.206,0,1.805,0.422,1.805,1.263c0,0.077-0.01,0.229-0.042,0.424L79.933,72.047z M77.682,70.913h0.801l0.369-2.324
					c0.019-0.059,0.024-0.107,0.024-0.125c0-0.218-0.125-0.338-0.35-0.338c-0.273,0-0.43,0.158-0.488,0.464L77.682,70.913z"/>
				<path d="M85.295,76.676h-1.612l0.72-4.599h-0.819l-0.706,4.599h-1.625l1.543-9.711h1.625l-0.594,3.768h0.79l0.599-3.768h1.619
					L85.295,76.676z"/>
				<path d="M91.478,76.676H89.86l0.731-4.599h-0.819l-0.711,4.599h-1.619l1.544-9.711h1.618l-0.6,3.768h0.794l0.6-3.768h1.632
					L91.478,76.676z"/>
				<path d="M95.586,76.745c-0.564,0-0.968-0.069-1.244-0.2c-0.37-0.173-0.55-0.525-0.55-1.032c0-0.099,0.006-0.256,0.038-0.458
					l1.006-6.466c0.119-0.639,0.357-1.081,0.75-1.337c0.343-0.221,0.862-0.334,1.546-0.334c1.21,0,1.81,0.409,1.81,1.233
					c0,0.094-0.011,0.238-0.041,0.438l-1.015,6.461c-0.106,0.648-0.356,1.102-0.754,1.367
					C96.779,76.634,96.267,76.745,95.586,76.745z M96.937,68.125c-0.257,0-0.405,0.152-0.438,0.432l-1.044,6.53
					c-0.013,0.064-0.019,0.126-0.019,0.188c0,0.176,0.112,0.263,0.344,0.263c0.256,0,0.438-0.158,0.475-0.489l1.019-6.461
					L97.3,68.39C97.3,68.213,97.168,68.125,96.937,68.125z"/>
			</g>
			<g>
				<path d="M107.148,75.476c-0.392,0.513-0.83,0.769-1.324,0.769c-0.683,0-1.02-0.344-1.02-1.025c0-0.188,0.017-0.42,0.055-0.676
					l1.059-6.64c0.157-0.991,0.619-1.482,1.394-1.482c0.507,0,0.881,0.255,1.12,0.775l0.011-0.008l0.5-3.098h1.6l-0.488,3.106h0.045
					c0.376-0.52,0.844-0.775,1.37-0.775c0.63,0,0.948,0.306,0.948,0.93c0,0.166-0.019,0.352-0.049,0.553l-1.065,6.64
					c-0.073,0.55-0.209,0.951-0.379,1.193c-0.231,0.338-0.599,0.508-1.106,0.508c-0.482,0-0.826-0.256-1.059-0.769l-0.479,2.955
					h-1.594L107.148,75.476z M106.538,74.567c0,0.246,0.095,0.378,0.293,0.378c0.281,0,0.457-0.231,0.533-0.694l0.919-5.817
					c0.019-0.139,0.019-0.227,0.019-0.283c0-0.245-0.108-0.356-0.338-0.356c-0.277,0-0.445,0.207-0.506,0.638l-0.919,5.908
					C106.538,74.396,106.538,74.476,106.538,74.567z M110.682,68.104c0-0.216-0.111-0.309-0.332-0.309
					c-0.269,0-0.431,0.227-0.511,0.695l-0.919,5.716c-0.027,0.143-0.032,0.252-0.032,0.342c0,0.259,0.125,0.397,0.356,0.397
					c0.25,0,0.418-0.201,0.481-0.605l0.907-5.906C110.664,68.238,110.682,68.122,110.682,68.104z"/>
				<path d="M117.245,76.245h-1.512l0.817-5.125h-0.038l-1.886,5.125h-1.5l1.538-9.712h1.511l-0.812,5.121h0.005l1.908-5.121h1.514
					L117.245,76.245z"/>
				<path d="M123.409,76.245h-1.621l0.732-4.597h-0.818l-0.708,4.597h-1.623l1.543-9.712h1.624l-0.6,3.768h0.796l0.591-3.768h1.632
					L123.409,76.245z"/>
				<path d="M129.523,76.245h-1.471l-0.019-0.661c-0.38,0.488-0.85,0.735-1.426,0.735c-0.624,0-0.938-0.3-0.938-0.868
					c0-0.176,0.027-0.426,0.075-0.763l0.432-2.55c0.056-0.401,0.182-0.707,0.346-0.916c0.167-0.193,0.53-0.437,1.112-0.716
					c0.575-0.281,0.943-0.533,1.124-0.747c0.165-0.223,0.301-0.628,0.396-1.21c0.042-0.243,0.061-0.425,0.061-0.509
					c0-0.279-0.112-0.418-0.349-0.418c-0.268,0-0.431,0.177-0.488,0.518l-0.298,1.809h-1.584l0.308-1.945
					c0.176-1.012,0.912-1.512,2.238-1.512c1.201,0,1.792,0.401,1.792,1.202c0,0.131,0,0.255-0.022,0.4L129.523,76.245z
					 M128.741,71.219c-0.382,0.198-0.613,0.331-0.68,0.405c-0.177,0.145-0.29,0.384-0.333,0.691l-0.386,2.205
					c0.018,0,0.027,0.048,0.018,0.136c0,0.209,0.106,0.314,0.326,0.314c0.292,0,0.454-0.144,0.506-0.434L128.741,71.219z"/>
				<path d="M135.629,76.245h-1.627l0.741-4.597h-0.822l-0.704,4.597h-1.615l1.532-9.712h1.634l-0.601,3.768h0.788l0.599-3.768
					h1.614L135.629,76.245z"/>
				<path d="M140.736,72.528h1.626l-0.364,2.204c-0.104,0.654-0.345,1.105-0.731,1.324c-0.299,0.169-0.806,0.263-1.537,0.263
					c-0.589,0-1-0.056-1.225-0.146c-0.389-0.166-0.582-0.503-0.582-0.999c0-0.125,0-0.289,0.038-0.486l1.044-6.601
					c0.102-0.685,0.35-1.139,0.739-1.349c0.293-0.174,0.805-0.246,1.523-0.246c0.601,0,1.02,0.04,1.25,0.139
					c0.388,0.15,0.582,0.469,0.582,0.975c0,0.135-0.013,0.299-0.043,0.5l-0.274,1.843h-1.638l0.268-1.793l0.039-0.207
					c0-0.179-0.125-0.268-0.376-0.268c-0.268,0-0.423,0.156-0.481,0.469l-0.986,6.467c-0.013,0.064-0.013,0.126-0.013,0.182
					c0,0.206,0.107,0.301,0.318,0.301c0.269,0,0.427-0.155,0.482-0.482L140.736,72.528z"/>
				<path d="M145.76,76.319c-0.554,0-0.966-0.07-1.241-0.207c-0.37-0.186-0.563-0.523-0.563-1.029c0-0.107,0.019-0.257,0.048-0.451
					l1.014-6.476c0.12-0.633,0.356-1.081,0.742-1.337c0.358-0.225,0.869-0.326,1.539-0.326c1.226,0,1.82,0.401,1.82,1.228
					c0,0.093-0.014,0.229-0.05,0.436l-0.999,6.462c-0.107,0.642-0.357,1.102-0.771,1.365
					C146.955,76.205,146.443,76.319,145.76,76.319z M147.117,67.694c-0.26,0-0.405,0.147-0.449,0.428l-1.037,6.533
					c-0.007,0.065-0.012,0.126-0.012,0.191c0,0.173,0.112,0.254,0.336,0.254c0.274,0,0.432-0.155,0.488-0.482l1.012-6.462
					l0.016-0.207C147.471,67.78,147.349,67.694,147.117,67.694z"/>
				<path d="M149.882,76.245l1.544-9.712h2.413c0.442,0,0.749,0.059,0.93,0.155c0.252,0.146,0.388,0.406,0.388,0.807
					c0,0.207-0.019,0.443-0.067,0.706l-0.256,1.545c-0.052,0.361-0.145,0.624-0.282,0.791c-0.144,0.17-0.374,0.312-0.712,0.423
					c0.481,0.194,0.734,0.516,0.734,0.985c0,0.176-0.019,0.338-0.043,0.469l-0.335,2.158c-0.113,0.659-0.315,1.099-0.588,1.322
					c-0.282,0.24-0.759,0.352-1.421,0.352H149.882z M152.258,71.624l-0.551,3.322h0.393c0.271,0,0.432-0.168,0.482-0.507
					l0.373-2.325c0.016-0.066,0.019-0.12,0.019-0.194c0-0.201-0.117-0.3-0.341-0.3L152.258,71.624z M152.83,67.838l-0.412,2.523
					l0.383,0.009c0.281,0,0.461-0.182,0.514-0.543l0.243-1.482c0.012-0.062,0.023-0.131,0.023-0.2c0-0.206-0.123-0.306-0.355-0.306
					H152.83z"/>
				<path d="M159.951,76.245h-1.476l-0.018-0.661c-0.374,0.488-0.845,0.735-1.419,0.735c-0.626,0-0.949-0.3-0.949-0.868
					c0-0.176,0.036-0.426,0.087-0.763l0.425-2.55c0.063-0.401,0.176-0.707,0.345-0.916c0.159-0.193,0.543-0.437,1.112-0.716
					c0.576-0.281,0.951-0.533,1.124-0.747c0.176-0.223,0.306-0.628,0.407-1.21c0.022-0.243,0.056-0.425,0.056-0.509
					c0-0.279-0.112-0.418-0.351-0.418c-0.274,0-0.431,0.177-0.481,0.518l-0.319,1.809h-1.58l0.319-1.945
					c0.168-1.012,0.908-1.512,2.236-1.512c1.199,0,1.802,0.401,1.802,1.202c0,0.131-0.007,0.255-0.043,0.4L159.951,76.245z
					 M159.17,71.219c-0.394,0.198-0.611,0.331-0.686,0.405c-0.178,0.145-0.283,0.384-0.336,0.691l-0.371,2.205
					c0.013,0,0.013,0.048,0.013,0.136c0,0.209,0.104,0.314,0.324,0.314c0.287,0,0.47-0.144,0.502-0.434L159.17,71.219z"/>
				<path d="M166.021,76.245h-1.601l0.62-3.915h-0.036l-1.708,3.915h-1.557l1.795-3.915c-0.463-0.155-0.701-0.549-0.701-1.158
					c0-0.135,0.019-0.303,0.049-0.503l0.358-2.294c0.117-0.747,0.286-1.226,0.513-1.448c0.261-0.264,0.748-0.395,1.479-0.395h2.331
					L166.021,76.245z M165.241,71.108l0.513-3.27h-0.399c-0.252,0-0.414,0.164-0.465,0.506l-0.376,2.27
					c-0.013,0.056-0.013,0.119-0.013,0.173c0,0.217,0.113,0.321,0.328,0.321H165.241z"/>
			</g>
			<g>
				<path d="M178.334,66.632l-1.802,4.504l0.335,5.203h-1.676l-0.11-5.116h-0.033l-0.818,5.116h-1.627l1.546-9.707h1.631
					l-0.719,4.456h0.044l1.631-4.456H178.334z"/>
				<path d="M180.419,76.415c-0.556,0-0.971-0.076-1.245-0.21c-0.375-0.186-0.564-0.523-0.564-1.03c0-0.097,0.02-0.251,0.052-0.455
					l1.012-6.465c0.103-0.634,0.349-1.083,0.746-1.343c0.336-0.217,0.86-0.331,1.541-0.331c1.209,0,1.812,0.411,1.812,1.232
					c0,0.092-0.019,0.244-0.05,0.441l-1.012,6.465c-0.095,0.646-0.345,1.1-0.751,1.362C181.612,76.3,181.093,76.415,180.419,76.415z
					 M181.772,67.795c-0.261,0-0.413,0.136-0.449,0.425l-1.043,6.531c-0.007,0.062-0.02,0.133-0.02,0.195
					c0,0.168,0.119,0.256,0.345,0.256c0.274,0,0.437-0.163,0.487-0.481l1.016-6.465l0.016-0.198
					C182.124,67.878,182.005,67.795,181.772,67.795z"/>
				<path d="M189.663,66.632h2.293l-1.544,9.707h-1.316l1.147-7.25h-0.022l-2.082,7.25h-1.334l0.215-7.25h-0.039l-1.162,7.25h-1.312
					l1.544-9.707h2.295l-0.483,7.026L189.663,66.632z"/>
				<path d="M196.576,76.339h-1.62l1.334-8.362h-0.783l-1.325,8.362h-1.631l1.538-9.707h4.029L196.576,76.339z"/>
				<path d="M202.684,76.339h-1.471v-0.662c-0.386,0.488-0.868,0.738-1.432,0.738c-0.633,0-0.95-0.297-0.95-0.874
					c0-0.164,0.033-0.416,0.075-0.76l0.439-2.556c0.061-0.393,0.182-0.696,0.33-0.898c0.181-0.201,0.557-0.448,1.124-0.726
					c0.576-0.274,0.953-0.524,1.122-0.744c0.172-0.226,0.31-0.617,0.404-1.214c0.029-0.242,0.068-0.424,0.068-0.519
					c0-0.273-0.117-0.399-0.356-0.399c-0.268,0-0.432,0.162-0.487,0.506l-0.306,1.808h-1.569l0.3-1.934
					c0.164-1.019,0.909-1.524,2.239-1.524c1.201,0,1.801,0.406,1.801,1.218c0,0.122-0.013,0.258-0.032,0.39L202.684,76.339z
					 M201.901,71.313c-0.379,0.193-0.599,0.335-0.674,0.406c-0.176,0.15-0.283,0.381-0.333,0.694l-0.381,2.205
					c0.02,0,0.02,0.046,0.006,0.126c0,0.215,0.12,0.32,0.338,0.32c0.289,0,0.45-0.141,0.496-0.431L201.901,71.313z"/>
				<path d="M208.805,76.339h-1.623l0.727-4.602h-0.818l-0.7,4.602h-1.632l1.546-9.707h1.623l-0.596,3.757h0.789l0.602-3.757h1.62
					L208.805,76.339z"/>
				<path d="M215.067,76.339h-1.501l0.813-5.12h-0.046l-1.895,5.12h-1.486l1.53-9.707h1.521l-0.832,5.124l0.032-0.003l1.896-5.121
					h1.511L215.067,76.339z"/>
				<path d="M221.192,76.339h-1.595l0.612-3.901h-0.019l-1.725,3.901h-1.555l1.8-3.913c-0.478-0.157-0.693-0.544-0.693-1.167
					c0-0.127,0.006-0.29,0.037-0.482l0.366-2.314c0.102-0.738,0.282-1.218,0.501-1.443c0.257-0.263,0.758-0.389,1.482-0.389h2.329
					L221.192,76.339z M220.416,71.21l0.509-3.284h-0.389c-0.259,0-0.419,0.175-0.476,0.511l-0.375,2.271c0,0.061,0,0.125,0,0.172
					c0,0.215,0.105,0.331,0.326,0.331H220.416z"/>
			</g>
		</g>
	</g>
</g>
</svg>
